<?xml version="1.0" encoding="UTF-8"?>
<svg xmlns="http://www.w3.org/2000/svg" version="1.1" viewBox="0 0 500 500">
  <defs>
    <style>
      .cls-1 {
        fill: none;
        stroke: #2bace2;
        stroke-miterlimit: 10;
        stroke-width: 10px;
      }

      .cls-2 {
        fill: #2bace2;
      }
    </style>
  </defs>
  <!-- Generator: Adobe Illustrator 28.6.0, SVG Export Plug-In . SVG Version: 1.2.0 Build 709)  -->
  <g>
    <g id="Layer_1">
      <path class="cls-2" d="M336.62,126.34h-199.78c-18.19-.2-33.1,14.39-33.3,32.58,0,.24,0,.48,0,.72v149.84c-.2,18.19,14.39,33.1,32.58,33.3.24,0,.48,0,.72,0h199.78c18.19.2,33.1-14.39,33.3-32.58,0-.24,0-.48,0-.72v-149.84c.2-18.19-14.39-33.1-32.58-33.3-.24,0-.48,0-.72,0ZM341.61,182.95l-99.89,74.92c-2.96,2.22-7.03,2.22-9.99,0l-99.89-74.92c-3.68-2.76-4.42-7.98-1.65-11.66,2.76-3.67,7.97-4.41,11.64-1.66l94.9,71.17,94.9-71.17c3.68-2.76,8.9-2.01,11.65,1.66,2.76,3.68,2.01,8.9-1.66,11.65Z"/>
      <path class="cls-2" d="M151.6,463.09"/>
      <path class="cls-1" d="M190.06,358.94c0,12.75-10.33,23.08-23.08,23.08s-23.08-10.33-23.08-23.08"/>
      <path class="cls-1" d="M236.73,358.94c0,12.75-10.33,23.08-23.08,23.08s-23.08-10.33-23.08-23.08"/>
      <path class="cls-1" d="M282.89,358.69c0,12.75-10.33,23.08-23.08,23.08s-23.08-10.33-23.08-23.08"/>
      <path class="cls-1" d="M329.56,358.69c0,12.75-10.33,23.08-23.08,23.08s-23.08-10.33-23.08-23.08"/>
      <path class="cls-1" d="M190.06,391.52c0,12.75-10.33,23.08-23.08,23.08s-23.08-10.33-23.08-23.08"/>
      <path class="cls-1" d="M236.73,391.52c0,12.75-10.33,23.08-23.08,23.08s-23.08-10.33-23.08-23.08"/>
      <path class="cls-1" d="M282.89,391.26c0,12.75-10.33,23.08-23.08,23.08s-23.08-10.33-23.08-23.08"/>
      <path class="cls-1" d="M329.56,391.26c0,12.75-10.33,23.08-23.08,23.08s-23.08-10.33-23.08-23.08"/>
    </g>
  </g>
</svg>